<svg id="Capa_1" enable-background="new 0 0 512.134 512.134" height="512" viewBox="0 0 512.134 512.134" width="512" xmlns="http://www.w3.org/2000/svg"><g><path d="m438.8 217.602h18.569c13.432 0 24.359-10.928 24.359-24.359 0-13.432-10.928-24.359-24.359-24.359h-15.9c-.489-35.567-11.002-70.357-29.302-97.663l17.74-17.74c9.497-9.498 9.497-24.952-.001-34.449-9.496-9.497-24.95-9.497-34.448 0l-16.727 16.726c-9.498-7.21-19.955-13.369-31.311-18.421-25.862-11.504-56.597-17.337-91.353-17.337-4.143 0-7.5 3.358-7.5 7.5s3.357 7.5 7.5 7.5c39.56 0 72.757 7.764 99.268 23.13-11.246 11.405-27.96 24.083-49.809 37.766-27.697 17.347-66.387 17.347-94.084 0-23.613-14.788-41.658-28.792-52.778-40.897 19.012-9.749 41.599-15.97 67.655-18.578 4.121-.412 7.128-4.088 6.716-8.21-.413-4.122-4.09-7.127-8.21-6.716-37.705 3.774-68.867 14.673-93.172 32.512l-14.977-14.976c-9.496-9.497-24.95-9.497-34.448 0-4.601 4.601-7.135 10.718-7.135 17.225s2.534 12.624 7.135 17.225l15.232 15.232c.208.208.427.397.653.576-21.987 33.315-27.162 72.032-27.46 99.594h-15.888c-13.432 0-24.359 10.928-24.359 24.359 0 13.432 10.928 24.359 24.359 24.359h18.616c2.536 21.7 6.8 43.357 12.701 64.147.936 3.3 3.942 5.454 7.211 5.454.678 0 1.367-.093 2.052-.287 3.985-1.131 6.298-5.278 5.167-9.263-9.73-34.281-14.874-70.996-14.874-106.176 0-25.791 4.402-63.125 25.375-94.517 9.119-13.649 20.63-25.066 34.446-34.239 11.988 13.84 31.456 29.25 58.022 45.887 16.007 10.025 35.026 15.324 55.003 15.324s38.996-5.299 55.003-15.323c24.142-15.118 42.487-29.269 54.622-42.117 9.278 6.852 17.573 14.81 24.855 23.875 30.264 37.67 33.531 83.259 33.531 101.111 0 64.801-16.794 130.81-46.076 181.101-5.447 9.355-11.235 17.982-17.329 25.887-2.662-30.123-13.169-58.071-30.263-79.924-20.378-26.05-47.639-40.397-76.761-40.397s-56.383 14.347-76.761 40.397c-17.091 21.848-27.597 49.788-30.262 79.904-16.15-20.949-29.988-46.844-40.632-76.256-1.409-3.896-5.712-5.91-9.605-4.5-3.895 1.41-5.909 5.709-4.5 9.604 7.233 19.985 15.908 38.466 25.769 55.042l-19.323 16.998-1.64-1.864c-2.294-2.608-5.468-4.168-8.935-4.39-3.476-.219-6.814.92-9.422 3.214l-29.797 26.213c-2.608 2.295-4.167 5.468-4.389 8.935-.223 3.468.92 6.814 3.215 9.422l76.404 86.853c2.295 2.608 5.469 4.168 8.936 4.39.284.018.567.027.849.027 3.162 0 6.179-1.135 8.573-3.241l29.797-26.213c5.384-4.737 5.911-12.972 1.174-18.357l-1.64-1.864 25.562-22.488c17.841 8.459 36.764 12.73 56.626 12.73 19.738 0 38.678-4.295 56.576-12.774l25.611 22.531-1.64 1.865c-4.736 5.385-4.209 13.62 1.175 18.357l29.797 26.212c2.395 2.107 5.411 3.242 8.573 3.242.281 0 .564-.009.849-.027 3.467-.222 6.641-1.781 8.935-4.39l76.404-86.852c2.296-2.609 3.438-5.956 3.216-9.423s-1.78-6.64-4.389-8.935l-29.797-26.212c-2.607-2.294-5.948-3.439-9.422-3.215-3.467.222-6.641 1.781-8.935 4.39l-1.64 1.864-19.319-16.995c.439-.739.885-1.466 1.321-2.213 23.603-40.531 39.424-90.742 45.42-142.523zm-384.035-15c-5.161 0-9.359-4.199-9.359-9.359 0-5.161 4.198-9.359 9.359-9.359h16.085c.202 6.215.559 12.46 1.058 18.719h-17.143zm52.341-145.456-14.271-14.272c-3.649-3.649-3.649-9.587-.001-13.236 3.65-3.649 9.586-3.648 13.236 0l13.936 13.937c-4.604 4.221-8.906 8.744-12.9 13.571zm283.134-11.684 15.824-15.824c3.65-3.649 9.587-3.648 13.235 0 3.649 3.65 3.649 9.587 0 13.236l-16.207 16.208c-4.005-4.821-8.29-9.364-12.852-13.62zm76.488 147.781c0 5.161-4.198 9.359-9.359 9.359h-17.105c.489-6.233.836-12.477 1.033-18.719h16.072c5.161 0 9.359 4.199 9.359 9.36zm-330.591 303.071-73.772-83.86 26.804-23.579 73.772 83.86zm286.828-107.44 26.804 23.579-73.772 83.86-26.804-23.579zm-258.993 62.323-53.311-60.6 17.543-15.432c8.808 13.054 18.406 24.687 28.652 34.646 9.131 8.875 18.661 16.385 28.561 22.519zm-.197-55.69c.003-66.493 41.178-122.362 92.292-122.362 50.851 0 89.88 51.46 92.783 121.878-7.078 7.329-14.498 13.782-22.238 19.312-21.699 15.505-45.435 23.367-70.545 23.367-55.022 0-91.122-40.99-92.292-42.195zm237.697-4.91-53.311 60.6-21.489-18.905c2.918-1.802 5.807-3.713 8.66-5.751 17.961-12.834 34.264-30.068 48.616-51.358z"/><path d="m162.232 260.508c2.877 0 5.807-.292 8.784-.876 12.868-2.525 26.304-10.318 42.282-24.526 15.979-14.208 25.291-26.64 29.303-39.124 5.175-16.099 1.146-31.743-11.973-46.497-12.979-14.597-32.825-25.809-53.09-29.991-22.607-4.667-42.682-.465-56.515 11.834-29.395 26.137-21.334 81.118 5.215 110.976 10.765 12.107 22.839 18.204 35.994 18.204zm-31.241-117.97c10.203-9.072 25.656-12.04 43.516-8.353 17.214 3.553 34.004 12.999 44.913 25.268 9.605 10.803 12.434 20.952 8.901 31.94-3.114 9.689-11.288 20.321-24.989 32.503-13.701 12.183-25.216 19.057-35.204 21.017-11.319 2.219-21.074-1.773-30.68-12.576-26.279-29.556-25.021-73.293-6.457-89.799z"/><path d="m340.995 259.632c2.979.585 5.906.876 8.784.876 13.154 0 25.229-6.098 35.993-18.204 12.979-14.597 21.792-35.618 23.576-56.233 1.991-23.003-4.53-42.445-18.362-54.743-13.831-12.299-33.898-16.502-56.515-11.834-20.264 4.183-40.111 15.394-53.09 29.991-34.864 39.211 4.421 74.142 17.331 85.621 15.979 14.208 29.415 22.001 42.283 24.526zm-48.405-100.18c10.909-12.269 27.699-21.715 44.913-25.268 5.006-1.033 9.821-1.544 14.386-1.544 11.722 0 21.786 3.367 29.13 9.897 10.204 9.073 14.957 24.074 13.385 42.24-1.515 17.511-8.933 35.291-19.841 47.56-9.605 10.802-19.355 14.796-30.68 12.576-9.988-1.96-21.503-8.835-35.204-21.017-29.111-25.884-33.772-44.555-16.089-64.444z"/><path d="m256.067 303.631c-31.458 0-57.051 25.593-57.051 57.05s25.593 57.05 57.051 57.05 57.051-25.593 57.051-57.05c0-31.458-25.593-57.05-57.051-57.05zm-7.5 15.683v40.024l-29.496 21.316c-3.223-5.945-5.055-12.749-5.055-19.973 0-20.626 14.932-37.819 34.551-41.367zm7.5 83.417c-10.554 0-20.205-3.918-27.597-10.363l27.981-20.222 29.739 17.832c-7.644 7.858-18.32 12.753-30.123 12.753zm38.519-25.208-31.019-18.599v-39.61c19.619 3.549 34.551 20.741 34.551 41.367 0 5.987-1.267 11.681-3.532 16.842z"/></g></svg>