<svg xmlns="http://www.w3.org/2000/svg" width="183" height="94" viewBox="0 0 183 94" fill="none"> <g filter="url(#filter0_dd)"> <mask id="path-1-inside-1" fill="white"> <path fill-rule="evenodd" clip-rule="evenodd" d="M21.2548 10.6646C20.6812 10.0198 21.139 9 22.002 9H160.001C160.864 9 161.321 10.0198 160.748 10.6646L153.277 19.0645C153.087 19.2779 152.815 19.3999 152.529 19.3999H29.4733C29.1878 19.3999 28.9159 19.2779 28.7261 19.0645L21.2548 10.6646ZM31.43 23.4654C30.8565 22.8205 31.3142 21.8008 32.1772 21.8008H149.825C150.688 21.8008 151.146 22.8205 150.573 23.4654L143.101 31.8653C142.911 32.0787 142.639 32.2007 142.354 32.2007H39.6486C39.363 32.2007 39.0911 32.0787 38.9014 31.8653L31.43 23.4654ZM140.397 36.2647C140.971 35.6199 140.513 34.6001 139.65 34.6001H42.3526C41.4896 34.6001 41.0318 35.6199 41.6054 36.2647L49.0767 44.6646C49.2665 44.878 49.5384 45 49.8239 45H132.179C132.464 45 132.736 44.878 132.926 44.6646L140.397 36.2647Z"/> </mask> <path fill-rule="evenodd" clip-rule="evenodd" d="M21.2548 10.6646C20.6812 10.0198 21.139 9 22.002 9H160.001C160.864 9 161.321 10.0198 160.748 10.6646L153.277 19.0645C153.087 19.2779 152.815 19.3999 152.529 19.3999H29.4733C29.1878 19.3999 28.9159 19.2779 28.7261 19.0645L21.2548 10.6646ZM31.43 23.4654C30.8565 22.8205 31.3142 21.8008 32.1772 21.8008H149.825C150.688 21.8008 151.146 22.8205 150.573 23.4654L143.101 31.8653C142.911 32.0787 142.639 32.2007 142.354 32.2007H39.6486C39.363 32.2007 39.0911 32.0787 38.9014 31.8653L31.43 23.4654ZM140.397 36.2647C140.971 35.6199 140.513 34.6001 139.65 34.6001H42.3526C41.4896 34.6001 41.0318 35.6199 41.6054 36.2647L49.0767 44.6646C49.2665 44.878 49.5384 45 49.8239 45H132.179C132.464 45 132.736 44.878 132.926 44.6646L140.397 36.2647Z" fill="url(#paint0_linear)"/> <path fill-rule="evenodd" clip-rule="evenodd" d="M21.2548 10.6646C20.6812 10.0198 21.139 9 22.002 9H160.001C160.864 9 161.321 10.0198 160.748 10.6646L153.277 19.0645C153.087 19.2779 152.815 19.3999 152.529 19.3999H29.4733C29.1878 19.3999 28.9159 19.2779 28.7261 19.0645L21.2548 10.6646ZM31.43 23.4654C30.8565 22.8205 31.3142 21.8008 32.1772 21.8008H149.825C150.688 21.8008 151.146 22.8205 150.573 23.4654L143.101 31.8653C142.911 32.0787 142.639 32.2007 142.354 32.2007H39.6486C39.363 32.2007 39.0911 32.0787 38.9014 31.8653L31.43 23.4654ZM140.397 36.2647C140.971 35.6199 140.513 34.6001 139.65 34.6001H42.3526C41.4896 34.6001 41.0318 35.6199 41.6054 36.2647L49.0767 44.6646C49.2665 44.878 49.5384 45 49.8239 45H132.179C132.464 45 132.736 44.878 132.926 44.6646L140.397 36.2647Z" fill="url(#paint1_linear)"/> <path d="M132.926 44.6646L132.179 44L132.926 44.6646ZM49.0767 44.6646L48.3295 45.3292L49.0767 44.6646ZM140.397 36.2647L141.144 36.9293L140.397 36.2647ZM41.6054 36.2647L40.8582 36.9293L41.6054 36.2647ZM38.9014 31.8653L39.6486 31.2007L38.9014 31.8653ZM143.101 31.8653L142.354 31.2007L143.101 31.8653ZM150.573 23.4654L151.32 24.13L150.573 23.4654ZM153.277 19.0645L154.024 19.7291L153.277 19.0645ZM160.748 10.6646L161.495 11.3292L160.748 10.6646ZM160.001 8H22.002V10H160.001V8ZM154.024 19.7291L161.495 11.3292L160.001 10L152.529 18.3999L154.024 19.7291ZM29.4733 20.3999H152.529V18.3999H29.4733V20.3999ZM20.5076 11.3292L27.9789 19.7291L29.4733 18.3999L22.002 10L20.5076 11.3292ZM149.825 20.8008H32.1772V22.8008H149.825V20.8008ZM143.848 32.5299L151.32 24.13L149.825 22.8008L142.354 31.2007L143.848 32.5299ZM39.6486 33.2007H142.354V31.2007H39.6486V33.2007ZM30.6828 24.13L38.1542 32.5299L39.6486 31.2007L32.1772 22.8008L30.6828 24.13ZM42.3526 35.6001H139.65V33.6001H42.3526V35.6001ZM49.8239 44L42.3526 35.6001L40.8582 36.9293L48.3295 45.3292L49.8239 44ZM132.179 44H49.8239V46H132.179V44ZM139.65 35.6001L132.179 44L133.673 45.3292L141.144 36.9293L139.65 35.6001ZM132.179 46C132.75 46 133.294 45.7559 133.673 45.3292L132.179 44V46ZM48.3295 45.3292C48.7091 45.7559 49.2529 46 49.8239 46V44H49.8239L48.3295 45.3292ZM139.65 35.6001L141.144 36.9293C142.292 35.6396 141.376 33.6001 139.65 33.6001V35.6001ZM42.3526 33.6001C40.6266 33.6001 39.7111 35.6396 40.8582 36.9293L42.3526 35.6001V35.6001V33.6001ZM39.6486 31.2007L38.1542 32.5299C38.5337 32.9566 39.0775 33.2007 39.6486 33.2007V31.2007ZM142.354 31.2007V33.2007C142.925 33.2007 143.469 32.9566 143.848 32.5299L142.354 31.2007ZM32.1772 20.8008C30.4512 20.8008 29.5357 22.8403 30.6828 24.13L32.1772 22.8008H32.1772V20.8008ZM149.825 22.8008V22.8008L151.32 24.13C152.467 22.8403 151.551 20.8008 149.825 20.8008V22.8008ZM29.4733 18.3999L27.9789 19.7291C28.3585 20.1558 28.9023 20.3999 29.4733 20.3999V18.3999ZM152.529 18.3999V20.3999C153.1 20.3999 153.644 20.1558 154.024 19.7291L152.529 18.3999ZM22.002 8C20.276 8 19.3605 10.0395 20.5076 11.3292L22.002 10L22.002 10V8ZM160.001 10V10L161.495 11.3292C162.642 10.0395 161.727 8 160.001 8V10Z" fill="url(#paint2_linear)" mask="url(#path-1-inside-1)"/> <path fill-rule="evenodd" clip-rule="evenodd" d="M50.164 11.1557C50.0748 9.44001 51.442 8 53.16 8H126.84C128.558 8 129.925 9.44001 129.836 11.1557L127.951 47.4183C127.884 48.7186 126.985 49.8269 125.727 50.1617L89.5474 59.7878C89.0254 59.9267 88.4755 59.922 87.9558 59.7743L54.2265 50.1868C52.9919 49.8359 52.1174 48.7385 52.0508 47.4568L50.164 11.1557Z" fill="url(#paint3_linear)"/> </g> <defs> <filter id="filter0_dd" x="0" y="0" width="182.003" height="103" filterUnits="userSpaceOnUse" color-interpolation-filters="sRGB"> <feFlood flood-opacity="0" result="BackgroundImageFix"/> <feColorMatrix in="SourceAlpha" type="matrix" values="0 0 0 0 0 0 0 0 0 0 0 0 0 0 0 0 0 0 127 0"/> <feOffset dy="13"/> <feGaussianBlur stdDeviation="10.5"/> <feColorMatrix type="matrix" values="0 0 0 0 0 0 0 0 0 0 0 0 0 0 0 0 0 0 0.2 0"/> <feBlend mode="normal" in2="BackgroundImageFix" result="effect1_dropShadow"/> <feColorMatrix in="SourceAlpha" type="matrix" values="0 0 0 0 0 0 0 0 0 0 0 0 0 0 0 0 0 0 127 0"/> <feOffset dy="4"/> <feGaussianBlur stdDeviation="4"/> <feColorMatrix type="matrix" values="0 0 0 0 0 0 0 0 0 0 0 0 0 0 0 0 0 0 0.15 0"/> <feBlend mode="normal" in2="effect1_dropShadow" result="effect2_dropShadow"/> <feBlend mode="normal" in="SourceGraphic" in2="effect2_dropShadow" result="shape"/> </filter> <linearGradient id="paint0_linear" x1="161.041" y1="33.8053" x2="118.183" y2="33.3677" gradientUnits="userSpaceOnUse"> <stop stop-color="#FFE99C"/> <stop offset="1" stop-color="#C09C49"/> </linearGradient> <linearGradient id="paint1_linear" x1="126.002" y1="11" x2="126.002" y2="47" gradientUnits="userSpaceOnUse"> <stop stop-color="#FFF7B9"/> <stop offset="1" stop-color="#C0983B"/> </linearGradient> <linearGradient id="paint2_linear" x1="126.002" y1="11" x2="126.002" y2="47" gradientUnits="userSpaceOnUse"> <stop stop-color="#FFFEFB"/> <stop offset="1" stop-color="#FFEFBD" stop-opacity="0"/> </linearGradient> <linearGradient id="paint3_linear" x1="90" y1="8" x2="90" y2="60" gradientUnits="userSpaceOnUse"> <stop stop-color="#FFF7B9"/> <stop offset="1" stop-color="#C99826"/> </linearGradient> </defs> </svg>