<?xml version="1.0" encoding="UTF-8"?>
<svg width="35px" height="38px" viewBox="0 0 35 38" version="1.1" xmlns="http://www.w3.org/2000/svg" xmlns:xlink="http://www.w3.org/1999/xlink">
    <!-- Generator: sketchtool 64 (101010) - https://sketch.com -->
    <title>6DA64D29-6E7E-4313-B253-921F9A343ED7@1.00x</title>
    <desc>Created with sketchtool.</desc>
    <defs>
        <linearGradient x1="50%" y1="0.282411318%" x2="50%" y2="100%" id="linearGradient-1">
            <stop stop-color="#B9A4FF" offset="0%"></stop>
            <stop stop-color="#9976EC" offset="100%"></stop>
        </linearGradient>
    </defs>
    <g id="Challenge-Page" stroke="none" stroke-width="1" fill="none" fill-rule="evenodd">
        <g id="Assets" transform="translate(-381.000000, -2513.000000)" fill="url(#linearGradient-1)">
            <g id="ICONS" transform="translate(92.000000, 2290.000000)">
                <g id="Icon_single_user-Copy" transform="translate(233.000000, 170.000000)">
                    <path d="M73.5006139,73.7980354 C77.5308428,73.7980354 81.2657769,74.6979504 84.2963778,76.4027893 C87.6988316,78.3156086 89.9835394,81.1353423 90.9000474,84.557019 C91.14629,85.4524306 90.9320403,86.4016318 90.318207,87.1347755 C89.741055,87.8089979 84.2963778,91 73.3869627,91 C62.6993815,91 57.2553263,87.8071838 56.6775523,87.129776 C56.0649105,86.395698 55.8530072,85.4458148 56.102274,84.5510196 C57.0231567,81.170339 59.3045835,78.3666038 62.6993815,76.4437854 C65.7124835,74.7379466 69.5480365,73.7980354 73.5006139,73.7980354 Z M73.5006139,53 C76.106865,53 78.4637561,53.9059144 80.1392814,55.551759 C81.7607149,57.1443585 82.5846204,59.2861111 82.4829733,61.6100345 L82.4644555,61.9141579 C82.2818102,64.2249397 81.272339,66.3907351 79.6208747,68.0135818 C77.9234757,69.6804243 75.7503238,70.5983376 73.5006139,70.5983376 C71.2519976,70.5983376 69.077752,69.6804243 67.3759783,68.0145817 C65.721233,66.3897352 64.7106681,64.2229399 64.5323974,61.9151579 C64.3420963,59.4533904 65.1634536,57.1896042 66.8444474,55.5397601 C68.5254411,53.8899159 70.87577,53 73.5006139,53 Z" id="Icon_Big_Single_user"></path>
                </g>
            </g>
        </g>
    </g>
</svg>