<?xml version="1.0" encoding="UTF-8"?>
<svg width="59px" height="33px" viewBox="0 0 59 33" version="1.1" xmlns="http://www.w3.org/2000/svg" xmlns:xlink="http://www.w3.org/1999/xlink">
    <!-- Generator: sketchtool 64 (101010) - https://sketch.com -->
    <title>7C2B0973-AFBD-47B8-8719-A393337FE001@1.00x</title>
    <desc>Created with sketchtool.</desc>
    <defs>
        <linearGradient x1="50%" y1="0.282411318%" x2="50%" y2="100%" id="linearGradient-1">
            <stop stop-color="#B9A4FF" offset="0%"></stop>
            <stop stop-color="#9976EC" offset="100%"></stop>
        </linearGradient>
    </defs>
    <g id="Challenge-Page" stroke="none" stroke-width="1" fill="none" fill-rule="evenodd">
        <g id="Assets" transform="translate(-134.000000, -2514.000000)" fill="url(#linearGradient-1)">
            <g id="ICONS" transform="translate(92.000000, 2290.000000)">
                <g id="Icon_multiple_users-Copy" transform="translate(0.000000, 170.000000)">
                    <path d="M71.1889001,71.9547236 C74.5501939,71.9547236 77.6652057,72.7316107 80.1927892,74.2033801 C83.0305056,75.8546967 84.9359989,78.2889429 85.7003854,81.2428402 C85.9057568,82.0158395 85.7270682,82.8352748 85.2151185,83.4681901 C84.7337619,84.0502391 80.1927892,86.8049974 71.0941128,86.8049974 C62.1804503,86.8049974 57.6399963,84.048673 57.1581209,83.463874 C56.6471651,82.8301523 56.4704334,82.0101282 56.678327,81.237661 C57.4463621,78.3191552 59.349119,75.8987203 62.1804503,74.2387716 C64.6934393,72.766139 67.8923694,71.9547236 71.1889001,71.9547236 Z M53.9500693,71.1389921 C56.2514382,71.1389921 58.3338897,71.5101715 59.9383716,72.2525303 C60.1253635,72.3388511 60.2895515,72.4225822 60.43276,72.5019974 C60.6455378,72.6201231 60.7808453,72.8319863 60.7924392,73.0651796 C60.8040331,73.2983728 60.6903436,73.5213226 60.4902258,73.6578327 C57.8121366,75.4688428 55.9996832,77.953155 55.2261751,80.893241 C55.2115806,80.9467599 55.1988105,81.001142 55.1887768,81.0555241 C55.1257381,81.3838884 54.8235741,81.6226743 54.4709102,81.6226743 L54.4709102,81.6226743 L44.3459818,81.6226743 C43.6301871,81.6257307 42.9533382,81.3145534 42.513461,80.7801608 C42.0500558,80.2064252 41.8891299,79.4637318 42.0765384,78.7637072 C42.7086623,76.3613997 44.2739215,74.3717056 46.6008307,73.0052476 C48.6531811,71.8019358 51.2628586,71.1389921 53.9500693,71.1389921 Z M88.3699261,71.1389921 C91.0571368,71.1389921 93.6668143,71.8019358 95.7191647,73.0052476 C98.0460739,74.3717056 99.6113331,76.3613997 100.243457,78.7637072 C100.430865,79.4637318 100.26994,80.2064252 99.8065344,80.7801608 C99.3666571,81.3145534 98.6898082,81.6257307 97.9740136,81.6226743 L87.8490852,81.6226743 C87.4964213,81.6226743 87.1942573,81.3838884 87.1312186,81.0555241 C87.1211849,81.001142 87.1084147,80.9467599 87.0938202,80.893241 C86.3203122,77.953155 84.5078588,75.4688428 81.8297696,73.6578327 C81.6296518,73.5213226 81.5159623,73.2983728 81.5275562,73.0651796 C81.5391501,72.8319863 81.6744576,72.6201231 81.8872354,72.5019974 C82.0304439,72.4225822 82.1946319,72.3388511 82.3816238,72.2525303 C83.9861057,71.5101715 86.0685572,71.1389921 88.3699261,71.1389921 Z M53.9491571,56.7622652 C55.7734686,56.7622652 57.4153489,57.4234824 58.5947662,58.6242045 C59.7896902,59.8396012 60.3734698,61.4805594 60.2366465,63.244093 C59.9748578,66.7141886 57.1535602,69.5377416 53.9491571,69.5377416 C50.7392812,69.5377416 47.9170714,66.7133254 47.6552827,63.2423666 C47.5257566,61.4641584 48.1113606,59.8197474 49.297163,58.613846 C50.4701952,57.4200296 52.1248457,56.7622652 53.9491571,56.7622652 Z M89.2146906,56.7622652 C91.0390021,56.7622652 92.6936525,57.4200296 93.8666848,58.613846 C95.0524872,59.8197474 95.6380912,61.4641584 95.5085651,63.2423666 C95.2467764,66.7133254 92.4245666,69.5377416 89.2146906,69.5377416 C86.0102876,69.5377416 83.18899,66.7141886 82.9272013,63.244093 C82.7903779,61.4805594 83.3741576,59.8396012 84.5690816,58.6242045 C85.7484989,57.4234824 87.3903792,56.7622652 89.2146906,56.7622652 Z M71.1889001,54 C73.3625672,54 75.3282628,54.7820663 76.7256853,56.2029065 C78.0695947,57.5692412 78.7565866,59.403783 78.6818629,61.3955869 L78.6649284,61.6954981 C78.5125984,63.6903715 77.6706786,65.5600797 76.2933235,66.9610661 C74.8776578,68.4000336 73.0652044,69.1924584 71.1889001,69.1924584 C69.313508,69.1924584 67.5001424,68.4000336 66.0808281,66.9619293 C64.7007365,65.5592165 63.8579047,63.6886451 63.7092233,61.6963613 C63.5505082,59.5711436 64.2355371,57.616841 65.6375205,56.192548 C67.0395038,54.768255 68.9997264,54 71.1889001,54 Z" id="Icon_Big_Multiple_users"></path>
                </g>
            </g>
        </g>
    </g>
</svg>