<svg xmlns="http://www.w3.org/2000/svg" width="153" height="94" viewBox="0 0 153 94" fill="none"> <g filter="url(#filter0_dd)"> <mask id="path-1-inside-1" fill="white"> <path d="M21.193 10.5882C20.7123 9.9272 21.1845 9 22.0018 9H130.074C130.892 9 131.364 9.9272 130.883 10.5882L125.013 18.6597C124.854 18.8773 124.615 19.022 124.349 19.061L77.1163 25.9792C77.022 25.993 76.9262 25.9932 76.8318 25.9799L27.7305 19.0592C27.4622 19.0214 27.2208 18.8763 27.0614 18.6571L21.193 10.5882Z"/> </mask> <path d="M21.193 10.5882C20.7123 9.9272 21.1845 9 22.0018 9H130.074C130.892 9 131.364 9.9272 130.883 10.5882L125.013 18.6597C124.854 18.8773 124.615 19.022 124.349 19.061L77.1163 25.9792C77.022 25.993 76.9262 25.9932 76.8318 25.9799L27.7305 19.0592C27.4622 19.0214 27.2208 18.8763 27.0614 18.6571L21.193 10.5882Z" fill="url(#paint0_linear)"/> <path d="M77.1163 25.9792L77.2612 26.9686L77.1163 25.9792ZM76.8318 25.9799L76.9714 24.9897L76.8318 25.9799ZM27.0614 18.6571L26.2526 19.2453L27.0614 18.6571ZM27.7305 19.0592L27.8701 18.069L27.7305 19.0592ZM125.013 18.6597L125.822 19.2479L125.013 18.6597ZM124.349 19.061L124.494 20.0504L124.349 19.061ZM130.883 10.5882L130.074 10L130.883 10.5882ZM22.0018 10H130.074V8H22.0018V10ZM130.074 10L124.204 18.0715L125.822 19.2479L131.692 11.1763L130.074 10ZM27.8701 18.069L22.0018 10L20.3843 11.1763L26.2526 19.2453L27.8701 18.069ZM124.204 18.0715L76.9714 24.9897L77.2612 26.9686L124.494 20.0504L124.204 18.0715ZM76.9714 24.9897L27.8701 18.069L27.591 20.0494L76.6922 26.9702L76.9714 24.9897ZM76.9714 24.9897L76.6922 26.9702C76.881 26.9968 77.0726 26.9962 77.2612 26.9686L76.9714 24.9897ZM26.2526 19.2453C26.5714 19.6836 27.0544 19.9737 27.591 20.0494L27.8701 18.069H27.8701L26.2526 19.2453ZM124.204 18.0715V18.0715L124.494 20.0504C125.026 19.9724 125.505 19.6831 125.822 19.2479L124.204 18.0715ZM130.074 10L131.692 11.1763C132.653 9.8544 131.709 8 130.074 8V10ZM22.0018 8C20.3672 8 19.4229 9.85441 20.3843 11.1763L22.0018 10L22.0018 10V8Z" fill="#4EAAFF" mask="url(#path-1-inside-1)"/> <path fill-rule="evenodd" clip-rule="evenodd" d="M35.164 11.1557C35.0748 9.44001 36.442 8 38.16 8H111.84C113.558 8 114.925 9.44001 114.836 11.1557L112.951 47.4183C112.884 48.7186 111.985 49.8269 110.727 50.1617L74.5474 59.7878C74.0254 59.9267 73.4755 59.922 72.9558 59.7743L39.2265 50.1868C37.9919 49.8359 37.1174 48.7385 37.0508 47.4568L35.164 11.1557Z" fill="url(#paint1_linear)"/> </g> <defs> <filter id="filter0_dd" x="0" y="0" width="152.076" height="103" filterUnits="userSpaceOnUse" color-interpolation-filters="sRGB"> <feFlood flood-opacity="0" result="BackgroundImageFix"/> <feColorMatrix in="SourceAlpha" type="matrix" values="0 0 0 0 0 0 0 0 0 0 0 0 0 0 0 0 0 0 127 0"/> <feOffset dy="13"/> <feGaussianBlur stdDeviation="10.5"/> <feColorMatrix type="matrix" values="0 0 0 0 0 0 0 0 0 0 0 0 0 0 0 0 0 0 0.2 0"/> <feBlend mode="normal" in2="BackgroundImageFix" result="effect1_dropShadow"/> <feColorMatrix in="SourceAlpha" type="matrix" values="0 0 0 0 0 0 0 0 0 0 0 0 0 0 0 0 0 0 127 0"/> <feOffset dy="4"/> <feGaussianBlur stdDeviation="4"/> <feColorMatrix type="matrix" values="0 0 0 0 0 0 0 0 0 0 0 0 0 0 0 0 0 0 0.15 0"/> <feBlend mode="normal" in2="effect1_dropShadow" result="effect2_dropShadow"/> <feBlend mode="normal" in="SourceGraphic" in2="effect2_dropShadow" result="shape"/> </filter> <linearGradient id="paint0_linear" x1="74.538" y1="10.4646" x2="74.538" y2="27.4545" gradientUnits="userSpaceOnUse"> <stop stop-color="#49A3F7"/> <stop offset="1" stop-color="#1F6DB5"/> </linearGradient> <linearGradient id="paint1_linear" x1="75" y1="8" x2="75" y2="60" gradientUnits="userSpaceOnUse"> <stop stop-color="#4EAAFF"/> <stop offset="1" stop-color="#105A9D"/> </linearGradient> </defs> </svg>