<svg xmlns="http://www.w3.org/2000/svg" width="169" height="94" viewBox="0 0 169 94" fill="none"> <g filter="url(#filter0_dd)"> <mask id="path-1-inside-1" fill="white"> <path fill-rule="evenodd" clip-rule="evenodd" d="M146.783 10.6248C147.307 9.97006 146.841 9 146.003 9H22.0019C21.1633 9 20.6972 9.97006 21.2211 10.6248L27.9429 19.0247C28.1327 19.2619 28.42 19.3999 28.7237 19.3999H139.281C139.585 19.3999 139.872 19.2619 140.062 19.0247L146.783 10.6248ZM137.629 23.4256C138.153 22.7708 137.687 21.8008 136.848 21.8008H31.1563C30.3177 21.8008 29.8515 22.7708 30.3755 23.4256L37.0973 31.8255C37.2871 32.0627 37.5743 32.2007 37.8781 32.2007H130.126C130.43 32.2007 130.717 32.0627 130.907 31.8255L137.629 23.4256Z"/> </mask> <path fill-rule="evenodd" clip-rule="evenodd" d="M146.783 10.6248C147.307 9.97006 146.841 9 146.003 9H22.0019C21.1633 9 20.6972 9.97006 21.2211 10.6248L27.9429 19.0247C28.1327 19.2619 28.42 19.3999 28.7237 19.3999H139.281C139.585 19.3999 139.872 19.2619 140.062 19.0247L146.783 10.6248ZM137.629 23.4256C138.153 22.7708 137.687 21.8008 136.848 21.8008H31.1563C30.3177 21.8008 29.8515 22.7708 30.3755 23.4256L37.0973 31.8255C37.2871 32.0627 37.5743 32.2007 37.8781 32.2007H130.126C130.43 32.2007 130.717 32.0627 130.907 31.8255L137.629 23.4256Z" fill="url(#paint0_linear)"/> <path d="M130.907 31.8255L130.126 31.2007L130.907 31.8255ZM37.0973 31.8255L37.8781 31.2007L37.0973 31.8255ZM137.629 23.4256L136.848 22.8008L137.629 23.4256ZM140.062 19.0247L140.842 19.6495L140.062 19.0247ZM146.783 10.6248L146.003 10L146.783 10.6248ZM22.0019 10H146.003V8H22.0019V10ZM28.7237 18.3999L22.0019 10L20.4403 11.2496L27.1621 19.6495L28.7237 18.3999ZM139.281 18.3999H28.7237V20.3999H139.281V18.3999ZM146.003 10L139.281 18.3999L140.842 19.6495L147.564 11.2496L146.003 10ZM31.1563 22.8008H136.848V20.8008H31.1563V22.8008ZM37.8781 31.2007L31.1563 22.8008L29.5947 24.0504L36.3165 32.4503L37.8781 31.2007ZM130.126 31.2007H37.8781V33.2007H130.126V31.2007ZM136.848 22.8008L130.126 31.2007L131.688 32.4503L138.41 24.0504L136.848 22.8008ZM130.126 33.2007C130.734 33.2007 131.308 32.9246 131.688 32.4503L130.126 31.2007V33.2007ZM36.3165 32.4503C36.6961 32.9246 37.2706 33.2007 37.8781 33.2007V31.2007H37.8781L36.3165 32.4503ZM136.848 22.8008L138.41 24.0504C139.458 22.7409 138.525 20.8008 136.848 20.8008V22.8008ZM31.1563 20.8008C29.4791 20.8008 28.5468 22.7409 29.5947 24.0504L31.1563 22.8008L31.1563 22.8008V20.8008ZM139.281 20.3999C139.888 20.3999 140.463 20.1238 140.842 19.6495L139.281 18.3999H139.281V20.3999ZM27.1621 19.6495C27.5417 20.1239 28.1162 20.3999 28.7237 20.3999V18.3999H28.7237L27.1621 19.6495ZM146.003 10L146.003 10L147.564 11.2496C148.612 9.94012 147.68 8 146.003 8V10ZM22.0019 8C20.3247 8 19.3924 9.94012 20.4403 11.2496L22.0019 10L22.0019 10V8Z" fill="#8447D1" mask="url(#path-1-inside-1)"/> <path fill-rule="evenodd" clip-rule="evenodd" d="M43.164 11.1557C43.0748 9.44001 44.442 8 46.16 8H119.84C121.558 8 122.925 9.44001 122.836 11.1557L120.951 47.4183C120.884 48.7186 119.985 49.8269 118.727 50.1617L82.5474 59.7878C82.0254 59.9267 81.4755 59.922 80.9558 59.7743L47.2265 50.1868C45.9919 49.8359 45.1174 48.7385 45.0508 47.4568L43.164 11.1557Z" fill="url(#paint1_linear)"/> </g> <defs> <filter id="filter0_dd" x="0" y="0" width="168.005" height="103" filterUnits="userSpaceOnUse" color-interpolation-filters="sRGB"> <feFlood flood-opacity="0" result="BackgroundImageFix"/> <feColorMatrix in="SourceAlpha" type="matrix" values="0 0 0 0 0 0 0 0 0 0 0 0 0 0 0 0 0 0 127 0"/> <feOffset dy="13"/> <feGaussianBlur stdDeviation="10.5"/> <feColorMatrix type="matrix" values="0 0 0 0 0 0 0 0 0 0 0 0 0 0 0 0 0 0 0.2 0"/> <feBlend mode="normal" in2="BackgroundImageFix" result="effect1_dropShadow"/> <feColorMatrix in="SourceAlpha" type="matrix" values="0 0 0 0 0 0 0 0 0 0 0 0 0 0 0 0 0 0 127 0"/> <feOffset dy="4"/> <feGaussianBlur stdDeviation="4"/> <feColorMatrix type="matrix" values="0 0 0 0 0 0 0 0 0 0 0 0 0 0 0 0 0 0 0.15 0"/> <feBlend mode="normal" in2="effect1_dropShadow" result="effect2_dropShadow"/> <feBlend mode="normal" in="SourceGraphic" in2="effect2_dropShadow" result="shape"/> </filter> <linearGradient id="paint0_linear" x1="84.0023" y1="11" x2="84.0023" y2="34.2007" gradientUnits="userSpaceOnUse"> <stop stop-color="#924DEA"/> <stop offset="1" stop-color="#522E84"/> </linearGradient> <linearGradient id="paint1_linear" x1="83" y1="8" x2="83" y2="60" gradientUnits="userSpaceOnUse"> <stop stop-color="#924DEA"/> <stop offset="1" stop-color="#522E84"/> </linearGradient> </defs> </svg>