<svg xmlns="http://www.w3.org/2000/svg" width="126" height="38" viewBox="0 0 126 38" fill="none"> <g filter="url(#filter0_d)"> <path fill-rule="evenodd" clip-rule="evenodd" d="M15.3181 3.28883C15.1476 1.52607 16.5332 0 18.3042 0H107.696C109.467 0 110.852 1.52607 110.682 3.28882L109.056 20.096C108.925 21.4534 107.895 22.5515 106.548 22.7688L62.2387 29.9207C61.9132 29.9732 61.5814 29.9717 61.2565 29.9163L19.4277 22.7855C18.093 22.5579 17.0761 21.4646 16.9458 20.117L15.3181 3.28883Z" fill="url(#paint0_linear)"/> <path d="M15.8158 3.24069C15.6737 1.77172 16.8284 0.5 18.3042 0.5H107.696C109.172 0.5 110.326 1.77172 110.184 3.24069L108.559 20.0479C108.449 21.1791 107.59 22.0941 106.469 22.2752L62.159 29.4271C61.8878 29.4708 61.6113 29.4696 61.3405 29.4234L19.5117 22.2926C18.3995 22.103 17.5521 21.1919 17.4435 20.0688L15.8158 3.24069Z" stroke="url(#paint1_linear)"/> </g> <g filter="url(#filter1_d)"> <path d="M30.0572 10.048H26.9212V8.2H35.4612V10.048H32.3252V18H30.0572V10.048ZM42.9255 18L41.0355 15.27H40.9235H38.9495V18H36.6815V8.2H40.9235C41.7915 8.2 42.5429 8.34467 43.1775 8.634C43.8215 8.92333 44.3162 9.334 44.6615 9.866C45.0069 10.398 45.1795 11.028 45.1795 11.756C45.1795 12.484 45.0022 13.114 44.6475 13.646C44.3022 14.1687 43.8075 14.57 43.1635 14.85L45.3615 18H42.9255ZM42.8835 11.756C42.8835 11.2053 42.7062 10.7853 42.3515 10.496C41.9969 10.1973 41.4789 10.048 40.7975 10.048H38.9495V13.464H40.7975C41.4789 13.464 41.9969 13.3147 42.3515 13.016C42.7062 12.7173 42.8835 12.2973 42.8835 11.756ZM53.4305 15.9H48.8805L48.0125 18H45.6885L50.0565 8.2H52.2965L56.6785 18H54.2985L53.4305 15.9ZM52.7165 14.178L51.1625 10.426L49.6085 14.178H52.7165ZM57.6952 8.2H59.9632V18H57.6952V8.2ZM71.277 8.2V18H69.415L64.529 12.05V18H62.289V8.2H64.165L69.037 14.15V8.2H71.277ZM73.5956 8.2H75.8636V18H73.5956V8.2ZM87.1773 8.2V18H85.3153L80.4293 12.05V18H78.1893V8.2H80.0653L84.9373 14.15V8.2H87.1773ZM96.118 12.946H98.19V16.922C97.658 17.3233 97.042 17.6313 96.342 17.846C95.642 18.0607 94.9373 18.168 94.228 18.168C93.2107 18.168 92.296 17.9533 91.484 17.524C90.672 17.0853 90.0327 16.4833 89.566 15.718C89.1087 14.9433 88.88 14.0707 88.88 13.1C88.88 12.1293 89.1087 11.2613 89.566 10.496C90.0327 9.72133 90.6767 9.11933 91.498 8.69C92.3193 8.25133 93.2433 8.032 94.27 8.032C95.1287 8.032 95.908 8.17667 96.608 8.466C97.308 8.75533 97.896 9.17533 98.372 9.726L96.916 11.07C96.216 10.3327 95.3713 9.964 94.382 9.964C93.7567 9.964 93.2013 10.0947 92.716 10.356C92.2307 10.6173 91.8527 10.986 91.582 11.462C91.3113 11.938 91.176 12.484 91.176 13.1C91.176 13.7067 91.3113 14.248 91.582 14.724C91.8527 15.2 92.226 15.5733 92.702 15.844C93.1873 16.1053 93.738 16.236 94.354 16.236C95.0073 16.236 95.5953 16.096 96.118 15.816V12.946Z" fill="url(#paint2_linear)"/> </g> <defs> <filter id="filter0_d" x="11.3037" y="0" width="103.392" height="37.959" filterUnits="userSpaceOnUse" color-interpolation-filters="sRGB"> <feFlood flood-opacity="0" result="BackgroundImageFix"/> <feColorMatrix in="SourceAlpha" type="matrix" values="0 0 0 0 0 0 0 0 0 0 0 0 0 0 0 0 0 0 127 0"/> <feOffset dy="4"/> <feGaussianBlur stdDeviation="2"/> <feColorMatrix type="matrix" values="0 0 0 0 0 0 0 0 0 0 0 0 0 0 0 0 0 0 0.25 0"/> <feBlend mode="normal" in2="BackgroundImageFix" result="effect1_dropShadow"/> <feBlend mode="normal" in="SourceGraphic" in2="effect1_dropShadow" result="shape"/> </filter> <filter id="filter1_d" x="24.9214" y="8.032" width="75.4508" height="14.136" filterUnits="userSpaceOnUse" color-interpolation-filters="sRGB"> <feFlood flood-opacity="0" result="BackgroundImageFix"/> <feColorMatrix in="SourceAlpha" type="matrix" values="0 0 0 0 0 0 0 0 0 0 0 0 0 0 0 0 0 0 127 0"/> <feOffset dy="2"/> <feGaussianBlur stdDeviation="1"/> <feColorMatrix type="matrix" values="0 0 0 0 0 0 0 0 0 0 0 0 0 0 0 0 0 0 0.5 0"/> <feBlend mode="normal" in2="BackgroundImageFix" result="effect1_dropShadow"/> <feBlend mode="normal" in="SourceGraphic" in2="effect1_dropShadow" result="shape"/> </filter> <linearGradient id="paint0_linear" x1="62.5052" y1="0" x2="62.5052" y2="33" gradientUnits="userSpaceOnUse"> <stop stop-color="#42435F"/> <stop offset="0.102456" stop-color="#2F3146"/> <stop offset="1" stop-color="#212434"/> </linearGradient> <linearGradient id="paint1_linear" x1="63" y1="0" x2="63" y2="33" gradientUnits="userSpaceOnUse"> <stop stop-color="#42435F"/> <stop offset="1" stop-color="#232536"/> </linearGradient> <linearGradient id="paint2_linear" x1="25.4466" y1="8.33353" x2="25.4466" y2="18.467" gradientUnits="userSpaceOnUse"> <stop stop-color="white"/> <stop offset="0.40559" stop-color="#FAF4E8"/> <stop offset="1" stop-color="#84859A"/> </linearGradient> </defs> </svg>