<svg xmlns="http://www.w3.org/2000/svg" width="45" height="45" viewBox="0 0 45 45" fill="none"> <circle cx="22.5" cy="22.5" r="22.5" fill="#161724"/> <path fill-rule="evenodd" clip-rule="evenodd" d="M22.7285 22.0571C26.8864 22.0571 30.2571 18.6865 30.2571 14.5286C30.2571 10.3707 26.8864 7 22.7285 7C18.5706 7 15.2 10.3707 15.2 14.5286C15.2 18.6865 18.5706 22.0571 22.7285 22.0571ZM27.1242 23.8286H27.6568C31.738 23.8286 36.4571 27.281 36.4571 31.5362C36.4571 31.5362 31.0482 38 22.7286 38C14.409 38 9 31.5362 9 31.5362C9 27.281 13.7191 23.8286 17.8003 23.8286H18.3329C19.6741 24.4977 21.15 24.8991 22.7286 24.8991C24.3071 24.8991 25.7895 24.4977 27.1242 23.8286Z" fill="url(#paint0_linear)"/> <defs> <linearGradient id="paint0_linear" x1="22.7286" y1="7" x2="22.7286" y2="38" gradientUnits="userSpaceOnUse"> <stop stop-color="#A5A6B4"/> <stop offset="0.505367" stop-color="#C2C3CD"/> <stop offset="1" stop-color="#ADAEBA"/> </linearGradient> </defs> </svg>