<svg xmlns="http://www.w3.org/2000/svg" width="102" height="91" viewBox="0 0 102 91" fill="none"> <g filter="url(#filter0_d)"> <path fill-rule="evenodd" clip-rule="evenodd" d="M66.1784 16.4627C66.5668 15.5564 65.9021 14.5482 64.916 14.5482H55.7259C55.1752 14.5482 54.6777 14.8772 54.4621 15.384L42.7607 42.8883L31.3045 15.3934C31.0912 14.8816 30.5912 14.5482 30.0367 14.5482H19.6903C18.7161 14.5482 18.0516 15.5342 18.4172 16.4371L34.3483 55.7827C34.4059 55.925 34.487 56.0566 34.5881 56.1721L35.4143 57.1155C35.9359 57.7111 36.6891 58.0527 37.4808 58.0527H47.4485C47.9979 58.0527 48.4945 57.7253 48.7109 57.2203L53.5309 45.9736C54.8807 47.4623 56.4558 48.5758 58.256 49.3141C60.2925 50.1075 62.8286 50.8591 65.8642 51.569C68.6308 52.2372 70.629 52.8844 71.8586 53.5108C73.1266 54.0955 73.7606 55.0142 73.7606 56.2669C73.7606 58.6472 71.5704 59.8373 67.1899 59.8373C64.8843 59.8373 62.5404 59.4406 60.158 58.6472C58.3045 58.0299 56.6254 57.2609 55.1208 56.3403C54.4349 55.9207 53.522 56.108 53.1101 56.7986L49.3827 63.0492C49.2559 63.2619 49.1791 63.5066 49.2169 63.7514C49.4898 65.5189 51.7936 66.5056 57.6219 68.1682C60.696 69.0451 63.8661 69.4836 67.1322 69.4836C70.9748 69.4836 74.2409 68.8572 76.9307 67.6045C79.6205 66.3099 81.6379 64.5978 82.9827 62.4681C84.3276 60.3384 85.0001 57.9582 85.0001 55.3273C85.0001 52.2789 84.2508 49.8778 82.7522 48.1239C81.292 46.3283 79.5437 45.0338 77.5071 44.2404C75.509 43.4052 72.9729 42.6326 69.8989 41.9227C67.1707 41.2964 65.1918 40.6909 63.9621 40.1062C62.7325 39.5216 62.1177 38.6447 62.1177 37.4754C62.1177 36.3062 62.6365 35.3666 63.6739 34.6567C64.7114 33.905 66.3637 33.5292 68.6308 33.5292C71.7962 33.5292 75.0501 34.3951 78.3925 36.1269C79.1465 36.5176 80.0886 36.1891 80.3915 35.3958L82.9296 28.7486C83.162 28.1402 82.9374 27.4477 82.3693 27.1293C80.6392 26.1599 78.6919 25.4118 76.5273 24.8851C73.9528 24.217 71.3398 23.8829 68.6885 23.8829C66.5227 23.8829 64.5424 24.078 62.7475 24.4681L66.1784 16.4627Z" fill="url(#paint0_linear)"/> <mask id="path-2-inside-1" fill="white"> <path fill-rule="evenodd" clip-rule="evenodd" d="M64.8377 15.1215C65.2261 14.2152 64.5613 13.207 63.5752 13.207H54.3852C53.8344 13.207 53.3369 13.536 53.1213 14.0427L41.4199 41.5471L29.9637 14.0522C29.7505 13.5404 29.2504 13.207 28.6959 13.207H18.3918C17.4065 13.207 16.7417 14.2138 17.1287 15.1199L34.538 55.8775C34.7541 56.3833 35.2511 56.7115 35.8011 56.7115H46.1077C46.6571 56.7115 47.1537 56.3841 47.3701 55.8791L52.19 44.6326C53.5398 46.1212 55.1148 47.2346 56.9149 47.9728C58.9515 48.7662 61.4876 49.5179 64.5232 50.2278C67.2898 50.8959 69.2879 51.5432 70.5176 52.1696C71.7856 52.7542 72.4196 53.6729 72.4196 54.9257C72.4196 57.3059 70.2294 58.4961 65.8489 58.4961C63.5433 58.4961 61.1994 58.0993 58.817 57.3059C57.0486 56.717 55.439 55.99 53.9882 55.125C53.2265 54.6708 52.2119 54.9614 51.8757 55.782L49.1876 62.3437C48.9519 62.9191 49.129 63.5858 49.6478 63.9284C51.4355 65.1093 53.6466 66.0755 56.2809 66.827C59.355 67.7039 62.5251 68.1424 65.7912 68.1424C69.6338 68.1424 72.8999 67.516 75.5897 66.2632C78.2795 64.9687 80.2968 63.2566 81.6417 61.1269C82.9866 58.9972 83.6591 56.6169 83.6591 53.9861C83.6591 50.9377 82.9098 48.5366 81.4112 46.7827C79.951 44.9871 78.2027 43.6925 76.1661 42.8991C74.168 42.0639 71.6319 41.2914 68.5579 40.5815C65.8296 39.9551 63.8507 39.3496 62.6211 38.765C61.3915 38.1804 60.7767 37.3034 60.7767 36.1342C60.7767 34.9649 61.2954 34.0254 62.3329 33.3154C63.3704 32.5638 65.0227 32.188 67.2898 32.188C70.4552 32.188 73.7091 33.0539 77.0515 34.7857C77.8055 35.1763 78.7475 34.8479 79.0504 34.0546L81.5886 27.4074C81.8209 26.799 81.5964 26.1065 81.0282 25.7881C79.2982 24.8186 77.3509 24.0705 75.1862 23.5439C72.6117 22.8757 69.9988 22.5417 67.3475 22.5417C65.1818 22.5417 63.2015 22.7367 61.4068 23.1268L64.8377 15.1215Z"/> </mask> <g filter="url(#filter1_i)"> <path fill-rule="evenodd" clip-rule="evenodd" d="M64.8377 15.1215C65.2261 14.2152 64.5613 13.207 63.5752 13.207H54.3852C53.8344 13.207 53.3369 13.536 53.1213 14.0427L41.4199 41.5471L29.9637 14.0522C29.7505 13.5404 29.2504 13.207 28.6959 13.207H18.3918C17.4065 13.207 16.7417 14.2138 17.1287 15.1199L34.538 55.8775C34.7541 56.3833 35.2511 56.7115 35.8011 56.7115H46.1077C46.6571 56.7115 47.1537 56.3841 47.3701 55.8791L52.19 44.6326C53.5398 46.1212 55.1148 47.2346 56.9149 47.9728C58.9515 48.7662 61.4876 49.5179 64.5232 50.2278C67.2898 50.8959 69.2879 51.5432 70.5176 52.1696C71.7856 52.7542 72.4196 53.6729 72.4196 54.9257C72.4196 57.3059 70.2294 58.4961 65.8489 58.4961C63.5433 58.4961 61.1994 58.0993 58.817 57.3059C57.0486 56.717 55.439 55.99 53.9882 55.125C53.2265 54.6708 52.2119 54.9614 51.8757 55.782L49.1876 62.3437C48.9519 62.9191 49.129 63.5858 49.6478 63.9284C51.4355 65.1093 53.6466 66.0755 56.2809 66.827C59.355 67.7039 62.5251 68.1424 65.7912 68.1424C69.6338 68.1424 72.8999 67.516 75.5897 66.2632C78.2795 64.9687 80.2968 63.2566 81.6417 61.1269C82.9866 58.9972 83.6591 56.6169 83.6591 53.9861C83.6591 50.9377 82.9098 48.5366 81.4112 46.7827C79.951 44.9871 78.2027 43.6925 76.1661 42.8991C74.168 42.0639 71.6319 41.2914 68.5579 40.5815C65.8296 39.9551 63.8507 39.3496 62.6211 38.765C61.3915 38.1804 60.7767 37.3034 60.7767 36.1342C60.7767 34.9649 61.2954 34.0254 62.3329 33.3154C63.3704 32.5638 65.0227 32.188 67.2898 32.188C70.4552 32.188 73.7091 33.0539 77.0515 34.7857C77.8055 35.1763 78.7475 34.8479 79.0504 34.0546L81.5886 27.4074C81.8209 26.799 81.5964 26.1065 81.0282 25.7881C79.2982 24.8186 77.3509 24.0705 75.1862 23.5439C72.6117 22.8757 69.9988 22.5417 67.3475 22.5417C65.1818 22.5417 63.2015 22.7367 61.4068 23.1268L64.8377 15.1215Z" fill="url(#paint1_linear)"/> </g> <path d="M64.8377 15.1215L62.944 14.3099V14.3099L64.8377 15.1215ZM53.1213 14.0427L55.0171 14.8493V14.8493L53.1213 14.0427ZM41.4199 41.5471L39.5182 42.3394L41.4001 46.8561L43.3157 42.3536L41.4199 41.5471ZM29.9637 14.0522L28.062 14.8446L28.062 14.8446L29.9637 14.0522ZM17.1287 15.1199L19.0233 14.3107L17.1287 15.1199ZM34.538 55.8775L32.6434 56.6868L34.538 55.8775ZM47.3701 55.8791L45.4765 55.0675L45.4765 55.0675L47.3701 55.8791ZM52.19 44.6326L53.7162 43.2487L51.5606 40.8713L50.2964 43.821L52.19 44.6326ZM56.9149 47.9728L56.1332 49.879L56.1501 49.8859L56.1671 49.8925L56.9149 47.9728ZM64.5232 50.2278L65.0068 48.2252L64.9996 48.2234L64.9923 48.2217L64.5232 50.2278ZM70.5176 52.1696L69.5824 54.0053L69.6184 54.0236L69.655 54.0405L70.5176 52.1696ZM58.817 57.3059L59.468 55.3513H59.468L58.817 57.3059ZM53.9882 55.125L52.9331 56.8945L52.9331 56.8945L53.9882 55.125ZM51.8757 55.782L49.9693 55.001L49.9693 55.001L51.8757 55.782ZM49.1876 62.3437L47.2812 61.5627V61.5627L49.1876 62.3437ZM49.6478 63.9284L48.5123 65.6475H48.5123L49.6478 63.9284ZM56.2809 66.827L55.7158 68.8081V68.8081L56.2809 66.827ZM75.5897 66.2632L76.4595 68.1308L76.4714 68.1253L76.4832 68.1196L75.5897 66.2632ZM81.6417 61.1269L79.8998 60.0268L79.8998 60.0268L81.6417 61.1269ZM81.4112 46.7827L79.8128 48.0825L79.8286 48.1019L79.8449 48.121L81.4112 46.7827ZM76.1661 42.8991L75.3716 44.7999L75.3948 44.8096L75.4182 44.8188L76.1661 42.8991ZM68.5579 40.5815L69.0214 38.5741L69.0189 38.5735L68.5579 40.5815ZM62.3329 33.3154L63.4963 35.0157L63.5192 35.0001L63.5416 34.9838L62.3329 33.3154ZM77.0515 34.7857L77.9993 32.9564L77.0515 34.7857ZM79.0504 34.0546L77.1258 33.3197V33.3197L79.0504 34.0546ZM81.5886 27.4074L83.5133 28.1423L83.5133 28.1423L81.5886 27.4074ZM81.0282 25.7881L82.0354 23.9909L82.0354 23.9909L81.0282 25.7881ZM75.1862 23.5439L74.6687 25.538L74.6839 25.542L74.6992 25.5457L75.1862 23.5439ZM61.4068 23.1268L59.5132 22.3153L57.9388 25.9889L61.8444 25.14L61.4068 23.1268ZM63.5752 15.2672C63.0822 15.2672 62.7498 14.7631 62.944 14.3099L66.7313 15.933C67.7023 13.6673 66.0403 11.1468 63.5752 11.1468V15.2672ZM54.3852 15.2672H63.5752V11.1468H54.3852V15.2672ZM55.0171 14.8493C54.9093 15.1027 54.6605 15.2672 54.3852 15.2672V11.1468C53.0083 11.1468 51.7646 11.9692 51.2256 13.2362L55.0171 14.8493ZM43.3157 42.3536L55.0171 14.8493L51.2256 13.2362L39.5242 40.7405L43.3157 42.3536ZM28.062 14.8446L39.5182 42.3394L43.3216 40.7547L31.8654 13.2598L28.062 14.8446ZM28.6959 15.2672C28.4187 15.2672 28.1686 15.1005 28.062 14.8446L31.8654 13.2598C31.3323 11.9803 30.0821 11.1468 28.6959 11.1468V15.2672ZM18.3918 15.2672H28.6959V11.1468H18.3918V15.2672ZM19.0233 14.3107C19.2168 14.7637 18.8844 15.2672 18.3918 15.2672V11.1468C15.9285 11.1468 14.2665 13.6639 15.2341 15.9292L19.0233 14.3107ZM36.4326 55.0683L19.0233 14.3107L15.2341 15.9292L32.6434 56.6868L36.4326 55.0683ZM35.8011 54.6513C36.0761 54.6513 36.3246 54.8154 36.4326 55.0683L32.6434 56.6868C33.1836 57.9513 34.426 58.7717 35.8011 58.7717V54.6513ZM46.1077 54.6513H35.8011V58.7717H46.1077V54.6513ZM45.4765 55.0675C45.5847 54.815 45.833 54.6513 46.1077 54.6513V58.7717C47.4813 58.7717 48.7227 57.9531 49.2637 56.6906L45.4765 55.0675ZM50.2964 43.821L45.4765 55.0675L49.2637 56.6906L54.0837 45.4441L50.2964 43.821ZM57.6966 46.0667C56.1899 45.4488 54.8668 44.5176 53.7162 43.2487L50.6638 46.0164C52.2129 47.7247 54.0397 49.0204 56.1332 49.879L57.6966 46.0667ZM64.9923 48.2217C62.0151 47.5255 59.5794 46.7999 57.6628 46.0532L56.1671 49.8925C58.3236 50.7326 60.96 51.5103 64.054 52.2339L64.9923 48.2217ZM71.4527 50.3339C69.9966 49.5921 67.8013 48.9 65.0068 48.2252L64.0395 52.2304C66.7783 52.8918 68.5793 53.4943 69.5824 54.0053L71.4527 50.3339ZM74.4798 54.9257C74.4798 53.9344 74.2226 52.9716 73.6397 52.1269C73.0662 51.2959 72.2663 50.7072 71.3801 50.2987L69.655 54.0405C70.0369 54.2166 70.1879 54.3795 70.2485 54.4673C70.2996 54.5413 70.3594 54.6642 70.3594 54.9257H74.4798ZM65.8489 60.5562C68.1583 60.5562 70.2139 60.2541 71.7606 59.4137C72.5648 58.9767 73.2694 58.3729 73.765 57.565C74.2637 56.7521 74.4798 55.8479 74.4798 54.9257H70.3594C70.3594 55.1936 70.3017 55.3308 70.2529 55.4104C70.2009 55.4951 70.0842 55.6352 69.7933 55.7932C69.1497 56.143 67.9199 56.4359 65.8489 56.4359V60.5562ZM58.166 59.2606C60.7397 60.1177 63.3032 60.5562 65.8489 60.5562V56.4359C63.7834 56.4359 61.6591 56.081 59.468 55.3513L58.166 59.2606ZM52.9331 56.8945C54.5239 57.843 56.271 58.6295 58.166 59.2606L59.468 55.3513C57.8262 54.8045 56.3541 54.137 55.0432 53.3554L52.9331 56.8945ZM53.7821 56.563C53.6956 56.7741 53.5209 56.9013 53.3699 56.9471C53.2277 56.9902 53.0693 56.9757 52.9331 56.8945L55.0432 53.3554C53.3019 52.3171 50.8269 52.9075 49.9693 55.001L53.7821 56.563ZM51.094 63.1247L53.7821 56.563L49.9693 55.001L47.2812 61.5627L51.094 63.1247ZM50.7832 62.2094C51.1536 62.454 51.1995 62.8672 51.094 63.1247L47.2812 61.5627C46.7043 62.9709 47.1043 64.7175 48.5123 65.6475L50.7832 62.2094ZM56.8461 64.8458C54.3607 64.1368 52.3544 63.2472 50.7832 62.2094L48.5123 65.6475C50.5167 66.9714 52.9325 68.0141 55.7158 68.8081L56.8461 64.8458ZM65.7912 66.0822C62.712 66.0822 59.7323 65.6692 56.8461 64.8458L55.7158 68.8081C58.9776 69.7386 62.3381 70.2025 65.7912 70.2025V66.0822ZM74.7199 64.3956C72.3704 65.4899 69.4184 66.0822 65.7912 66.0822V70.2025C69.8491 70.2025 73.4294 69.542 76.4595 68.1308L74.7199 64.3956ZM79.8998 60.0268C78.7967 61.7736 77.1032 63.2485 74.6963 64.4068L76.4832 68.1196C79.4559 66.6889 81.797 64.7395 83.3837 62.2269L79.8998 60.0268ZM81.5989 53.9861C81.5989 56.2457 81.0273 58.2414 79.8998 60.0268L83.3837 62.2269C84.946 59.7529 85.7193 56.9881 85.7193 53.9861H81.5989ZM79.8449 48.121C80.9344 49.3961 81.5989 51.2686 81.5989 53.9861H85.7193C85.7193 50.6068 84.8852 47.677 82.9775 45.4444L79.8449 48.121ZM75.4182 44.8188C77.1027 45.475 78.5639 46.5467 79.8128 48.0825L83.0096 45.4829C81.3381 43.4274 79.3027 41.9101 76.914 40.9795L75.4182 44.8188ZM68.0943 42.5889C71.1014 43.2833 73.5169 44.0247 75.3716 44.7999L76.9606 40.9983C74.8191 40.1032 72.1624 39.2995 69.0214 38.5741L68.0943 42.5889ZM61.7365 40.6256C63.1796 41.3117 65.3419 41.9569 68.0968 42.5894L69.0189 38.5735C66.3174 37.9533 64.5219 37.3875 63.5057 36.9044L61.7365 40.6256ZM58.7165 36.1342C58.7165 37.1013 58.9782 38.0346 59.5509 38.8515C60.1109 39.6503 60.8857 40.2211 61.7365 40.6256L63.5057 36.9044C63.1269 36.7243 62.9795 36.5643 62.9247 36.4861C62.8826 36.4261 62.8369 36.3363 62.8369 36.1342H58.7165ZM61.1695 31.6152C59.6207 32.675 58.7165 34.2267 58.7165 36.1342H62.8369C62.8369 35.7032 62.9702 35.3757 63.4963 35.0157L61.1695 31.6152ZM67.2898 30.1278C64.8836 30.1278 62.694 30.5098 61.1242 31.6471L63.5416 34.9838C64.0469 34.6178 65.1619 34.2482 67.2898 34.2482V30.1278ZM77.9993 32.9564C74.4191 31.1015 70.842 30.1278 67.2898 30.1278V34.2482C70.0684 34.2482 72.999 35.0063 76.1038 36.6149L77.9993 32.9564ZM77.1258 33.3197C77.2882 32.8942 77.7283 32.816 77.9993 32.9564L76.1038 36.6149C77.8827 37.5366 80.2068 36.8015 80.9751 34.7895L77.1258 33.3197ZM79.664 26.6725L77.1258 33.3197L80.9751 34.7895L83.5133 28.1423L79.664 26.6725ZM80.0211 27.5853C79.6341 27.3685 79.5583 26.9492 79.664 26.6725L83.5133 28.1423C84.0836 26.6487 83.5587 24.8445 82.0354 23.9909L80.0211 27.5853ZM74.6992 25.5457C76.7041 26.0335 78.473 26.7178 80.0211 27.5853L82.0354 23.9909C80.1234 22.9194 77.9977 22.1076 75.6733 21.5421L74.6992 25.5457ZM67.3475 24.6019C69.8236 24.6019 72.2627 24.9136 74.6687 25.538L75.7038 21.5497C72.9608 20.8379 70.174 20.4815 67.3475 20.4815V24.6019ZM61.8444 25.14C63.4725 24.7861 65.3035 24.6019 67.3475 24.6019V20.4815C65.06 20.4815 62.9306 20.6873 60.9692 21.1136L61.8444 25.14ZM62.944 14.3099L59.5132 22.3153L63.3004 23.9384L66.7313 15.933L62.944 14.3099Z" fill="url(#paint2_linear)" mask="url(#path-2-inside-1)"/> </g> <defs> <filter id="filter0_d" x="0.518471" y="0.84564" width="100.963" height="89.2399" filterUnits="userSpaceOnUse" color-interpolation-filters="sRGB"> <feFlood flood-opacity="0" result="BackgroundImageFix"/> <feColorMatrix in="SourceAlpha" type="matrix" values="0 0 0 0 0 0 0 0 0 0 0 0 0 0 0 0 0 0 127 0"/> <feOffset dy="4.12038"/> <feGaussianBlur stdDeviation="8.24076"/> <feColorMatrix type="matrix" values="0 0 0 0 0 0 0 0 0 0 0 0 0 0 0 0 0 0 1 0"/> <feBlend mode="normal" in2="BackgroundImageFix" result="effect1_dropShadow"/> <feBlend mode="normal" in="SourceGraphic" in2="effect1_dropShadow" result="shape"/> </filter> <filter id="filter1_i" x="17.0168" y="13.207" width="66.6422" height="57.6823" filterUnits="userSpaceOnUse" color-interpolation-filters="sRGB"> <feFlood flood-opacity="0" result="BackgroundImageFix"/> <feBlend mode="normal" in="SourceGraphic" in2="BackgroundImageFix" result="shape"/> <feColorMatrix in="SourceAlpha" type="matrix" values="0 0 0 0 0 0 0 0 0 0 0 0 0 0 0 0 0 0 127 0" result="hardAlpha"/> <feOffset dy="2.74692"/> <feGaussianBlur stdDeviation="1.37346"/> <feComposite in2="hardAlpha" operator="arithmetic" k2="-1" k3="1"/> <feColorMatrix type="matrix" values="0 0 0 0 0.670833 0 0 0 0 0.556792 0 0 0 0 0.268333 0 0 0 1 0"/> <feBlend mode="normal" in2="shape" result="effect1_innerShadow"/> </filter> <linearGradient id="paint0_linear" x1="72.7232" y1="17.8654" x2="72.7232" y2="76.5893" gradientUnits="userSpaceOnUse"> <stop stop-color="#868686"/> <stop offset="1" stop-color="#1B1A1A"/> </linearGradient> <linearGradient id="paint1_linear" x1="71.3931" y1="16.5241" x2="71.3931" y2="75.248" gradientUnits="userSpaceOnUse"> <stop stop-color="#FFF7B9"/> <stop offset="1" stop-color="#C0983B"/> </linearGradient> <linearGradient id="paint2_linear" x1="71.3931" y1="16.5241" x2="71.3931" y2="75.248" gradientUnits="userSpaceOnUse"> <stop stop-color="#FFFEFB"/> <stop offset="1" stop-color="#D8C383"/> </linearGradient> </defs> </svg>