<svg width="48" height="48" viewBox="0 0 48 48" fill="none" xmlns="http://www.w3.org/2000/svg">
<circle opacity="0.903985" cx="24" cy="24" r="24" fill="#1B1D21"/>
<path fill-rule="evenodd" clip-rule="evenodd" d="M24.0568 14.0001C20.5469 13.986 17.2856 15.8071 15.4605 18.8004C13.6354 21.7937 13.5129 25.5224 15.1376 28.6287L15.3379 29.0192C15.5021 29.3264 15.5364 29.6865 15.4333 30.0192C15.1474 30.7784 14.9085 31.5545 14.7178 32.343C14.7178 32.743 14.8323 32.9715 15.2616 32.962C16.0219 32.7941 16.7707 32.5778 17.5033 32.3144C17.8189 32.2275 18.1544 32.2476 18.4572 32.3715C18.7339 32.5049 19.2967 32.8477 19.3158 32.8477C22.9915 34.7805 27.4808 34.2473 30.5998 31.5075C33.7187 28.7677 34.8199 24.39 33.3676 20.5041C31.9153 16.6182 28.2111 14.0306 24.0568 14.0001V14.0001Z" stroke="white" stroke-width="1.5" stroke-linecap="round" stroke-linejoin="round"/>
<ellipse opacity="0.4" cx="19.2871" cy="24.0001" rx="0.476965" ry="0.47619" stroke="white" stroke-width="1.5" stroke-linecap="round" stroke-linejoin="round"/>
<ellipse opacity="0.4" cx="24.0568" cy="24.0001" rx="0.476965" ry="0.47619" stroke="white" stroke-width="1.5" stroke-linecap="round" stroke-linejoin="round"/>
<ellipse opacity="0.4" cx="28.8265" cy="24.0001" rx="0.476965" ry="0.47619" stroke="white" stroke-width="1.5" stroke-linecap="round" stroke-linejoin="round"/>
</svg>
